<?xml version="1.0" encoding="utf-8"?>
<!-- Generator: Adobe Illustrator 23.0.3, SVG Export Plug-In . SVG Version: 6.00 Build 0)  -->
<svg version="1.1" id="Color_1_Image" xmlns="http://www.w3.org/2000/svg" xmlns:xlink="http://www.w3.org/1999/xlink" x="0px"
	 y="0px" viewBox="0 0 284.3 106.6" style="enable-background:new 0 0 284.3 106.6;" xml:space="preserve">
<style type="text/css">
	.st0{fill:#26DE10;}
	.st1{fill:#ACD037;}
</style>
<title>01 CulteraDelArteJR</title>
<path class="st0" d="M282.8,90c-0.6-0.1-1.2-0.1-1.8-0.1c-2.8,0-5.7,0.1-8.5,0.1c-5.9-0.1-11.7-0.3-17.6-0.4c-1.6,0-3.1-0.1-4.7-0.1
	c-4.6-0.3-9.2-0.6-13.8-0.8c-2.8-0.2-5.6-0.2-8.5-0.3c-1.2-0.1-2.3-0.3-3.5-0.3c-6.1,0-12.1,0-18.2,0c-0.5,0-1,0-1.5-0.1
	c1.2-1.2,0.3-1.8-2.6-1.7s-5.9,0.2-8.8,0.3c-4.4,0.2-8.7,0.4-13.1,0.5c-4.7,0.1-9.4,0.1-14,0.1c-12.6,0.1-25.2,0.1-37.8-0.8
	c-1.8-0.1-3.7-0.1-5.5,0c-1.5,0.1-2.2,0.6-1.9,1.3c0,0.1,0,0.2,0,0.3c-3.6,0.1-7.1,0.2-10.6,0.2c-9.8,0,19.5,0.1,9.8-0.2
	c-7.8-0.3-15.5-0.8-23.2-1.3c-6.8-0.5-13.7-1.1-20.7-1c-1.1,0-2.3-0.1-3.6-0.2c0.6-0.1,1.1-0.3,1.7-0.5c0.9-0.5,0.5-1.2-1.2-1.4
	c-2.6-0.3-5-1.3-7.1-2.8c-1-0.6-2.2-1-3.4-1c-2.2-0.1-4.3-0.7-6.3-1.7c-1.2-0.6-2.5-0.9-3.8-0.8h-0.7c-1-1.7,4.8,3.7,3.4,2.4
	c-4.7-4.1-6-7.3-6-7.3l-6.9,4.2c0.6,3.1-3.2,0-0.2,3.2c-1,0.3,2.4,1.6,1.4,1.8c-2.2,0.4,1-1.8-1.4-1.8c-0.4,0,3.2,3.6,2.8,3.7
	c0,0.2-0.3,1.8-0.3,2c0.7,0.2,1.6,1,2.2,1.2c0.2,0,0.4,0.1,0.5,0.1c0.8,0.6,1.7,1,2.7,1.1c1,0.3,3.3-0.9-3.7-2.2
	c-2.9-0.5-1.3-0.1,1.9,0.2c1.9,0.2,3.8,0.3,5.7,0.6c0.8,0.1,1.6,0.3,2.3,0.5l3.5,0.7c0.3,0,0.5,0.1,0.8,0.1c1.6,0.5,3.4,0.7,5.1,0.5
	c1.9,0,3.8,0,5.8,0c1.4,0.1,2.8-0.1,4.1-0.6c0.3-0.1,0.6-0.1,0.9-0.2l0.4,1.2h-1.4c-1,0-2.1,0-3.1,0c-1.4,0-2.7,0.2-3.1,0.8
	s0.2,1.2,1.3,1.6c0.9,0.3,1.8,0.5,2.7,0.6c2.4,0.4,4.8,0.9,7.1,1.7c4.5,1.3,9.2,2.6,13.8,3.8c1.4,0.4,2.9,0.6,4.4,0.9
	c0.7,0.1,1,0.3,1,0.6c-0.1,0.6,0.9,1,2.5,1c2.8,0.1,5.5,0,8.3,0.2c4.1,0.2,8.2,0.6,12.2,1c5.7,0.6,11.3,1.4,17.1,1.9
	c-31.2-3-23.7-1.6,22.6,1.9c6.4,0.5,12.9,0.9,19.4,1.3c3.7,0.2,7.4,0.3,11.1,0.4l2,0.1h5.3l0.5-0.1c0.8-0.2,1.2-0.4,1.2-0.9
	s-0.6-0.7-1.4-0.8c-0.6-0.1-1.3-0.2-1.9-0.2c-1.6-0.2-42.3-0.3-43.9-0.5c1.2-0.1,2.3,0,3.4,0c3.7-0.1,7.3-0.2,11-0.3
	c4.9,0,9.8,0,14.8,0c1.6,0,3.1-0.2,3.7-0.9c0.4-0.2,0.9-0.3,1.4-0.3c2,0,4,0.1,6,0c1.6-0.1,3.2-0.3,4.8-0.5c0.7-0.1,1.4-0.2,2.2-0.2
	c1.9-0.1,3.9-0.2,5.8-0.2c6.7-0.2,13.5-0.4,20.2-0.6c4.5-0.1,9-0.1,13.4-0.1c0.9,0.1,1.8-0.1,2.5-0.6c0.3-0.4,1-0.5,1.9-0.5
	c1.3,0,2.6-0.1,3.8-0.2c2-0.2,2.9-0.5,2.9-1.1s-1.2-0.9-2.5-1.1c1-0.2,1.9-0.3,2.9-0.4c1-0.1,2.2-0.1,3.2-0.2
	c2.2-0.2,4.4-0.5,6.6-0.8c1.8-0.2,2.5-0.7,2.2-1.5c-0.2-0.4,0.2-0.5,0.9-0.7c1.6-0.3,3.2-0.6,4.8-0.9c3.4-0.7,7-1.1,10.5-1
	c0.8,0,1.5,0,2.2-0.1c1-0.1,1.7-0.4,1.7-0.9S283.8,90.2,282.8,90z M97.8,86l9.9,0.5l-0.1,0.2c-3.3,0-6.8,0.2-9.9-0.5L97.8,86z
	 M89.3,88.6c2.3,0,4.5,0.2,6.8,0.5c0.7,0.1,1.3,0.3,2,0.4c1.2,0.2,2.2,0.4,2.2,1.1c0,0.5,1.2,0.7,2.7,0.8c1.6,0,3.2,0.3,4.7,0.8
	C101.5,91.9,95.3,90.7,89.3,88.6L89.3,88.6z M111.5,92.5c2.9,0.1,5.6-0.1,8.6,0.2C117.3,92.9,114.4,92.8,111.5,92.5L111.5,92.5z
	 M127.1,86.1h5.1c-0.4,0.6-1,0.8-2.4,0.6C128.9,86.6,128,86.4,127.1,86.1L127.1,86.1z M126.1,92.1l0.2-0.2
	c5.6,0.3-27.8,0.2-22.3,0.9c-4.2,0,30.7,0.1,26.5,0C129,92.7,127.6,92.4,126.1,92.1L126.1,92.1z M104.8,96.5
	c-2.9-0.3,33.5-0.7,30.8-1v-0.1h4.5c1.4,0-36.1-0.1-35-0.5c0.4-0.1,0.9-0.1,1.3-0.1C105,95,104.1,95.5,104.8,96.5L104.8,96.5z
	 M107.9,86.8c-2.5-0.1,34.1,0,31.6-0.1c-1-0.1-1.9-0.2-2.9-0.4l0.1-0.1h-23.9C111.2,86.7,109.6,86.9,107.9,86.8L107.9,86.8z
	 M123,92.7l-3.1-0.2l0.1-0.2l3.1,0.2L123,92.7z M143.4,97.9l-15-1.4v-0.2c1.5,0,3,0.1,4.4,0c2.7-0.1,3.3-0.7,2.2-1.7
	c1.3-0.1,1.3-0.1,1.4,0.4c0.1,1,1.5,1.6,3.3,2.1C140.8,97.4,142.2,97.6,143.4,97.9L143.4,97.9z M144.5,92.4L144.5,92.4l17.8-0.1v0.1
	H144.5z M193.9,90.8c3.6-0.6,10.7-0.5,11.8,0.2C204.1,91.1,194.6,91,193.9,90.8L193.9,90.8z M257.9,88.3c-0.7,0.1-1.3,0.1-2,0
	c-1.6,0-3.3,0-4.9,0c-0.4,0-0.8-0.1-1.2-0.2c0.3-0.2,0.7-0.3,1.1-0.4c3-0.3,5.9-0.6,9-0.8c1.6-0.1,3.4,0,5.1,0l0.1,0.1
	C262.8,87.3,260.4,87.8,257.9,88.3L257.9,88.3z"/>
<path class="st1" d="M128.8,55.2c-0.6,0.4-1,1.1,0.1,1.9c0.1,0.1,0.1,0.3,0.1,0.4c-1.2,2-0.6,4.2-0.4,6.2c0.2,3,0.6,6.1,0.9,9.1
	c0,0.4,0.1,0.8,0.2,1.4c1.1-0.8,0.4-1.8,0.9-2.6c0.2,0.2,0.5,0.3,0.6,0.5c0.2,1.3,0.4,2.7,0.6,4c0,0.1-0.3,0.3-0.4,0.4
	c-0.4,0.3-0.8,0.5-1.2,0.8c-1.8-0.6-3.8-0.6-5.7,0l-2.4-1.1v-4.4l0.4-0.1L123,74h0.3c0.1-0.2,0.1-0.5,0.1-0.7
	c-0.1-1.6-0.2-3.3-0.5-4.9c-0.1-0.5-0.5-1.3-0.9-1.4c-1-0.1-2.1-0.1-3.1,0c-0.2,0-0.4,0.3-0.4,0.5c-0.2,2.1-0.4,4.2-0.6,6.3
	c0,0.1,0.1,0.2,0.2,0.3h0.4l0.5-2.5h0.4c0.1,0.2,0.2,0.4,0.3,0.6c0,1.2,0,2.5,0,3.8c0,0.2-0.3,0.5-0.6,0.7c-0.4,0.3-0.9,0.5-1.4,0.7
	c-1.3-0.6-2.8-0.6-4.1,0.1c-1.6-1.2-1.6-1.2-3.6-0.2c-0.2,0.1-0.5,0.1-0.7,0.1h-3.3c-0.7-0.4-1.4-0.9-2-1.3
	c-0.2-0.2-0.4-0.6-0.3-0.9c0-4.9,0-9.8,0-14.8c0-0.4,0-0.8-0.1-1.2c-0.2-0.8-0.9-1.1-2-1.2s-1.8,0.3-2,1.1c-0.1,0.3-0.1,0.5-0.1,0.8
	c0,4,0,8.1,0,12.1c0.1,0.6,0.2,1.1,0.3,1.7h0.5l0.2-1.9l0.3-0.1c0.1,0.2,0.4,0.4,0.4,0.6c0.2,1.4,0.4,2.7,0.7,4.1
	c-0.8,0.3-1.6,0.7-2.4,1c-0.3,0.1-0.7,0-1-0.1c-1.3-0.4-2.7-0.5-4-0.1c-0.7,0.3-1.5,0.2-2.1-0.2c-0.4-0.2-0.9-0.4-1.4-0.5
	c-0.1-1.9,0.7-4.8,1.4-5l0.2,2.2h0.4c0.1-0.3,0.1-0.6,0.2-0.9c0-3.7,0.1-7.4-0.1-11.2c-0.2-1.3-0.5-2.6-1-3.8
	c-0.1-0.2-0.2-0.5-0.1-0.6c1.1-0.8,0.5-1.3-0.3-1.9c1-1,1.6-2.4,1.4-3.8c0.1-3.9,0-7.8,0-11.7c0-0.3-0.1-0.5-0.1-0.8h-0.4
	c0,0.6,0,1.2,0,1.8c0,0.2-0.3,0.3-0.4,0.5c-0.1-0.2-0.4-0.3-0.4-0.5c-0.2-1.5-0.4-3-0.6-4.5c0.8-0.3,1.5-0.5,2.2-0.8
	c0.2-0.1,0.4-0.1,0.7,0c1.8,0.6,3.7,0.3,5.5,0c2-0.4,4.1-0.2,6.1,0.4c2.7,1,4.1,2.7,4.1,4.9c0.1,3.7,0.1,7.4,0,11.2
	c0,1.9-0.8,3.5-3.5,4.6c0.3,0.1,0.5,0.2,0.8,0.3c1.7,0.7,2.8,2.3,2.7,4.1c0,3.9,0,7.8,0,11.7c0,0.4,0.1,0.8,0.1,1.1h0.4l0.3-1.9
	l0.4-0.1c0.2,0.5,0.4,0.9,0.5,1.4c0.1,0.6,0.2,1.1,0.4,1.6l0.4-2.9h0.5l0.4,2.3h0.4c0.2-0.4,0.3-0.8,0.3-1.2c0.4-4,0.7-8,1-12
	c0.1-1.1-0.5-2.2-0.5-3.3c0-0.9,0.8-1.8,0-2.7c2.1-2.3,1.6-5,2-7.5c0.5-3.5,0.8-7.1,1.3-10.7c0.1-0.5,0.8-1,1.3-1.5
	c1.8,0.6,3.8,0.6,5.6,0c1,0.4,1.7,1.4,1.7,2.5c0.5,4.9,1,9.7,1.7,14.6C127.9,53.3,128.3,54.3,128.8,55.2z M99.4,46.7L99.4,46.7
	c0,2.3,0,4.5,0,6.8c0,1,0.6,1.5,1.9,1.6c1.4,0.1,2.1-0.4,2.2-1.4c0.1-0.6,0.1-1.3,0.1-1.9c0-3.8,0-7.6,0-11.4c0.1-1-0.7-1.9-1.8-2
	c-0.1,0-0.2,0-0.4,0c-1-0.1-1.9,0.7-2,1.8c0,0.1,0,0.2,0,0.2c0,0.2,0,0.4,0,0.6C99.4,42.8,99.4,44.7,99.4,46.7L99.4,46.7z
	 M120.9,54.8c-0.9,0.9-1,1.3-0.7,2c0.1,0.3,0.1,0.6,0,0.9c-0.3,1.3-0.8,2.6-1,3.9c-0.1,0.7,0.6,1,1.5,1s1.4-0.4,1.3-1
	c-0.2-1.2-0.5-2.3-0.8-3.5c-0.2-0.5-0.2-1,0-1.4C121.4,56.2,121,55.6,120.9,54.8z M120.6,46.3c-0.9,2.1-0.8,7.5,0.1,8.5
	C121.4,51.9,120.8,49.2,120.6,46.3L120.6,46.3z M50.6,75.5c-0.3-0.6-0.6-1.2-0.8-1.8c-0.4-2-0.7-4-1-5.9c-0.3-1.7-0.5-3.5-1-5.2
	c-0.3-1.3-0.9-2.5-1.4-3.8c-0.1-0.3-0.1-0.5,0-0.8c0.6-3.8,1.5-7.6,1.8-11.5c0.3-4,0-8,0-12.1c0-7.6,0-15.1,0-22.7
	c0-2.2-0.2-4.5-0.6-6.6c-0.4-1.5-1-3-1.8-4.3c-0.2-0.3-0.6-0.6-1-0.6C43.6,0,42.6,0,41.5,0c-0.3,0-0.6,0.2-0.8,0.4
	c-0.4,0.8-0.7,1.6-0.9,2.5c-0.4,2.5-0.7,5-0.8,7.5c-0.2,5.7-0.2,11.4-0.2,17c0.1,6.5,0.4,13,0.7,19.5c0,0.3,0.1,0.5,0.1,0.8
	c0.4,3.9,0.8,7.7,1.1,11.6c0.2,2.4-0.1,4.8,0,7.2c0.1,2.6-0.2,5.3,1,7.8c0.4,0.9,0.7,1.8,1,2.8c0.7,2,1.5,3.9,3.8,4.9
	c-0.7-0.7-1.4-1.5-1.9-2.3c-0.4-0.8-1.4-1.5-0.8-2.7c1.1,0.1,2.1-0.4,2.6-1.4c0.4-0.6,0.6-1.2,0.9-1.8c0.2-0.4,0.6-0.6,1.1-0.7
	c0.3,0,0.8,0.5,1,0.8c0.4,0.6,0.7,1.2,1,1.8L50.6,75.5z M212.7,38.8l-0.2,2.3h-0.5l-0.8-4.9c0.8-0.3,1.5-0.6,2.2-0.8
	c0.2-0.1,0.4-0.1,0.5,0c1.7,0.7,3.3,0.2,5,0.2c1.8-0.2,3.7-0.2,5.6,0c3.2,0.6,5.1,2.7,5.2,5.2c0,3.7,0,7.3,0,11
	c0,1.9-0.8,3.6-3.4,4.6c3.1,1.3,3.5,3.3,3.4,5.6c-0.1,3.6,0,7.1,0,10.7c0,0.4,0.1,0.7,0.2,1.1h0.4l0.2-1.9c0.8,0.2,0.9,0.6,1.3,4.3
	c-1.6,1.7-4,0.6-5.6,1.1l-1.9-1.9l-0.7,0.5c0-5.1,0-10.3,0-15.4c0-0.3,0-0.7-0.1-1c-0.2-1.2-0.9-1.5-2.5-1.5c-1.2,0-1.7,0.5-1.8,1.6
	c0,4.3,0,8.6,0,12.9c0.1,0.4,0.2,0.9,0.4,1.3l0.4-0.1v-2c0.8,0.2,1.4,2.2,1.4,4.6c-0.8,0.3-1.5,0.6-2.2,0.9c-0.3,0.1-0.6,0.1-0.9,0
	c-1.6-0.5-3.2-0.5-4.8,0c-0.3,0-0.6,0-0.9-0.1c-1.9-0.5-2.2-1.5-1.7-2.8c0.2-0.8,0.4-1.6,0.5-2.4c0-0.2,0.3-0.4,0.6-0.5l0.3,2.2h0.4
	c0.1-0.2,0.1-0.4,0.2-0.7c0-4.1,0-8.2-0.1-12.3c-0.2-1.2-0.5-2.4-0.9-3.6c0.9-0.5,0.8-1.2-0.4-2c1-1.1,1.6-2.5,1.4-4
	c0-3.9,0-7.8,0-11.6c0-0.2-0.1-0.5-0.1-0.7L212.7,38.8z M219.4,46.7L219.4,46.7c0,2.3,0,4.5,0,6.8c0,1.2,0.8,1.7,2.4,1.6
	c1,0,1.6-0.4,1.7-1.1c0.1-1,0.2-1.9,0.2-2.9c0-3.4,0-6.9,0-10.3c0-0.3,0-0.6,0-0.9c-0.3-1.1-1.3-1.7-2.4-1.5
	c-0.9-0.1-1.8,0.6-1.9,1.6c0,0,0,0.1,0,0.1C219.4,42.2,219.4,44.4,219.4,46.7L219.4,46.7z M141.7,48.9l-0.1,1.7l-0.2,0.1
	c-0.1-0.2-0.3-0.3-0.3-0.5c-0.2-0.9-0.3-1.8-0.4-2.7c0.5-0.3,1-0.5,1.5-0.7c0.2-0.1,0.5-0.1,0.7,0c1,0.2,1.9,0.3,2.9,0.1
	c1.5-0.2,3-0.2,4.5,0c2.4,0.3,3.8,1.8,3.9,3.7c0,2.7,0,5.3,0,8c0.1,0.8,0.3,1.7,0.5,2.5c-0.6,0.8-0.6,0.9,0.1,1.8
	c-0.6,1.1-0.8,2.3-0.7,3.5c0,2.2,0,4.5,0,6.8c0.1,1.3-0.5,2.6-1.5,3.4c-1.5,1.2-3.4,1.2-5.4,1.1c-0.7-0.1-1.4-0.2-2.2-0.2
	c-0.9,0-1.8,0-2.7,0.2l-1.7-0.8l0.4-3.4h0.3c0,0.2,0.1,0.5,0.1,0.7s0,0.6,0.1,0.9c0.1,0.1,0.2,0.2,0.3,0.2c0.1,0,0.2-0.1,0.3-0.2
	c0.1-0.2,0.1-0.4,0.1-0.6c0-2.8,0-5.6,0-8.4c0.1-1.1-0.3-2.3-1-3.2c0.5-0.3,0.6-0.9,0.3-1.4c0-0.1-0.1-0.1-0.1-0.2
	c-0.1-0.1,0-0.3,0-0.5c0.3-0.7,0.6-1.4,0.7-2.2c0.1-3,0-5.9,0-8.9c0-0.2,0-0.4-0.1-0.6L141.7,48.9z M148.8,62.7
	c0.1-0.3,0.5-0.8,0.4-1c-0.6-0.7-0.2-1.2,0.1-1.8c0.2-0.4,0.2-0.8,0.2-1.2c0-2.9,0-5.7,0-8.6c0-0.3,0-0.7-0.2-1
	c-0.3-0.3-0.7-0.6-1.1-0.6c-0.7-0.2-1.4,0.2-1.6,0.8c-0.1,0.2-0.1,0.4,0,0.6c-0.1,2.9-0.1,5.8,0,8.8c0.1,0.8,0.3,1.7,0.5,2.4
	c-0.8,0.5-0.8,0.8,0,1.5c-0.2,0.7-0.4,1.4-0.5,2.1c-0.1,2.3-0.1,4.6-0.1,7c0,0.9,0,1.7,0.1,2.6c0,0.6,0.3,1,1.2,1.1
	c1.2,0.2,1.8-0.3,1.8-1.4c0-3,0-5.9,0-8.9C149.4,64.2,149.1,63.4,148.8,62.7L148.8,62.7z M73,60.4c0.1,4.1,0.1,8.1,0.1,12.2
	c0,2.1,1.6,4,4,4.7c0.4,0.1,0.8,0.1,1.2,0c1.3-0.5,2.7-0.5,4.1-0.1c0.8,0.3,1.7,0.3,2.4-0.1c2-0.7,3.3-2.6,3.3-4.7
	c0.1-3.4,0-6.8,0-10.2c-0.1-1.6,0.3-3.1,1.3-4.4c-1.1-0.9-1.1-1.1-0.4-2c-0.4-1.2-0.7-2.3-0.8-3.6c-0.1-4.1,0-8.1,0-12.2
	c0-0.3,0.1-0.7,0.2-1h0.4l0.3,2.4h0.5l0.8-4.9l-2.2-1.1c-1.4,0.6-2.9,0.6-4.3,0l-1.9,1c0,1.6,0.2,3.2,0.4,4.8h0.4L83,39h0.6
	c0.1,0.4,0.2,0.8,0.2,1.3c0,3.6,0,7.2,0,10.8c0,1.5,0.1,3-1.1,4.3c1,1.1,1,1.3,0.2,2.2c0.4,1.1,0.6,2.2,0.8,3.3
	c0.1,1.2,0.1,2.4,0,3.6c0,2.8,0,5.6,0,8.3c0.1,0.9-0.6,1.7-1.5,1.7c0,0,0,0,0,0c-1.9,0.4-3-0.2-3-1.7c0-3.8-0.1-7.6,0.1-11.4
	c0.2-1.4,0.5-2.7,1-4c-0.9-0.8-0.9-0.9,0.1-1.9c-0.5-0.9-0.8-2-1-3c-0.1-4.2-0.1-8.3,0-12.5c0.1-0.3,0.2-0.7,0.3-1H80l0.2,2.1
	c0.7-0.5,1.3-3.6,1.2-5l-2.1-1c-1.7,0.6-3.6,0.6-5.4,0.1c-0.3-0.1-0.6-0.1-0.8,0c-0.8,0.3-1.5,0.7-2.3,1c0.3,1.3,0.6,2.7,0.9,4.1
	c0,0.2,0.3,0.3,0.6,0.6l0.2-2.3h0.4c0.1,0.3,0.2,0.7,0.2,1c0,3.9,0,7.8,0,11.6c0,1.3,0.1,2.7-1.1,3.8c0.9,0.7,1,1.5,0.3,2
	C72.6,58.3,72.9,59.3,73,60.4L73,60.4z M28.5,39.1c0.1,0.4,0.1,0.8,0.2,1.1c0,3.8,0.1,7.5,0,11.3c-0.1,1.4-0.4,2.8-0.7,4.2
	c0.8,0.5,0.5,1.3-0.2,1.9c0.4,0.9,0.7,1.9,0.8,2.9c0.1,4.1,0.1,8.2,0,12.3c0,1.4-0.8,1.9-2.5,1.8c-1.5,0-2-0.5-2-1.9
	c0-3.5,0-7,0-10.5c0-1.5,0.1-3.1,1.3-4.4c-1.2-1.1-1.2-1.3-0.3-2.2c-0.5-1.1-0.8-2.2-1-3.4c-0.1-4,0-8,0-12c0.1-0.4,0.2-0.8,0.3-1.1
	h0.4l0.2,2.1h0.5c0.4-1.6,0.6-3.2,0.8-4.9l-2.2-1c-1.9,0.6-3.9,0.6-5.8,0l-2.7,1.1c0.3,1.6,0.6,3.1,1.1,4.6h0.4l0.3-2.1h0.4
	c0.1,0.4,0.2,0.7,0.2,1.1c0,3.9,0,7.9,0,11.8c0,1.2,0.1,2.5-1.1,3.6c0.8,0.6,1.1,1.3,0.3,2c-0.1,0.1-0.1,0.3,0,0.4
	c1.1,1.4,0.9,3,0.9,4.6c0,3.5,0,7,0,10.4c0,2.1,1.4,3.6,3.8,4.5c0.5,0.1,1,0.1,1.5,0c1.3-0.1,2.7-0.1,4,0c0.7,0.2,1.5,0.2,2.2-0.1
	c2.2-1,3.4-2.5,3.5-4.4c0.1-3.7,0.1-7.4,0.1-11.1c-0.1-1.4,0.3-2.7,1.1-3.8c-1.2-1-1.2-1.2-0.4-2.1c-0.4-0.9-0.7-1.8-0.8-2.8
	c-0.1-4.4,0-8.7,0-13.1c0-0.3,0.1-0.5,0.2-0.8h0.3l0.2,2.4h0.6l0.7-4.9l-2.3-1.1c-1.4,0.6-2.9,0.6-4.3,0l-1.9,1
	c0.2,1.6,0.1,3.3,0.4,4.9h0.5l0.4-2.2L28.5,39.1z M209.2,74.1l0.4-2.3l0.3-0.1c0.1,0.2,0.3,0.3,0.3,0.5c0.1,0.5,0.2,1.1,0.2,1.6
	c0.2,0.6,0.3,1.3,0.2,2c-0.2,0.5-0.9,0.9-1.5,1.4c-1.9-0.6-3.9-0.6-5.8,0l-2.3-1v-4.5h0.3l0.5,2.2h0.3c0.1-0.1,0.2-0.3,0.2-0.4
	c-0.1-1.7-0.3-3.5-0.4-5.2c-0.1-1.5-2.5-2.4-4.1-1.6c-0.2,0.1-0.4,0.3-0.5,0.6c-0.2,2.1-0.4,4.3-0.5,6.4c0,0.1,0.1,0.2,0.2,0.3
	c1.2-0.7,0.3-1.8,1.2-2.5v4.7l-1.7,0.9c-1.3-0.6-2.7-0.6-4,0c-0.5-0.3-1-0.6-1.5-0.8c-0.1-0.1-0.3-0.2-0.3-0.4
	c0.1-1.4,0.2-2.7,0.4-4.1c0-0.1,0.2-0.2,0.5-0.3l0.4,2.4h0.5c0.1-0.3,0.2-0.5,0.2-0.8c0.4-4.2,0.8-8.3,1.1-12.5
	c0.1-1-0.5-2.1-0.5-3.1s0.6-1.9,0-2.8c2.2-2.6,1.6-5.6,2-8.4c0.5-3.1,0.7-6.3,1.1-9.4c0.1-0.6,0.8-1.2,1.2-1.7c1,0.2,2,0.3,3,0.4
	c1-0.1,1.9-0.2,2.9-0.3c0.8,0.4,1.3,1.2,1.3,2.1c0.4,4.8,1,9.7,1.6,14.5c0,1.2,0.6,2.4,1.6,3c-0.9,0.7-1.3,1.4-0.2,2.2
	c0.1,0.1,0.1,0.3,0,0.4c-0.9,1.6-0.6,3.3-0.5,5c0.3,3.5,0.6,7.1,1,10.6c0.1,0.3,0.2,0.7,0.3,1L209.2,74.1z M199.7,46.3h-0.3
	c0,0.4-0.1,0.8-0.1,1.2c-0.1,1.9-0.2,3.9-0.2,5.8c0,0.8,0.7,1.7,0,2.5c-0.2,0.2,0.1,0.6,0.1,1c0,0.3,0,0.6,0,0.9
	c-0.3,1.3-0.8,2.5-1,3.8c-0.1,0.7,0.6,1.1,1.6,1.1s1.5-0.5,1.4-1.2c-0.1-1.1-0.4-2.1-0.7-3.1c-0.2-0.6-0.6-1.1-0.1-1.8
	c0.2-0.2-0.1-0.7-0.2-1.1c-0.1-0.2-0.2-0.5-0.2-0.7c0-2.7,0-5.3-0.1-8C199.9,46.5,199.8,46.4,199.7,46.3L199.7,46.3z M263.1,73.5
	c-0.1,0.9-0.7,1.2-1.9,1.1c-1.2-0.1-1.7-0.5-1.7-1.6c0-4.5,0-9,0-13.6c0-0.3,0.1-0.7,0.2-1c0.2-0.3,0.5-0.4,0.8-0.4
	c0.3,0,0.6,0.2,0.8,0.5c0,0.4,0,0.8-0.1,1.2c-0.2,0.5-0.3,1-0.4,1.5c0,0.9,0.5,1.3,1.3,1.4c0.2-0.6,0.5-1.2,0.9-1.7
	c1.8-1.5,1.9-2.2,0.4-3.9l1.5-0.9l-1.5-0.9c1.3-1.5,1.3-2.1-0.1-3.4c-0.4-0.5-0.8-1.1-1-1.8c-0.8,0-1.5,0.7-1.5,1.5
	c0,0.1,0,0.2,0,0.2c0.2,0.6,0.3,1.1,0.4,1.7c0,0.3-0.4,0.6-0.7,0.8c-0.3-0.2-0.8-0.4-1-0.6c-0.2-0.4-0.3-0.8-0.2-1.2c0-4,0-8,0-12.1
	c0-0.4,0.1-0.8,0.2-1.2c0.2-0.8,0.9-1.3,1.7-1.2c1.1,0,1.6,0.6,1.7,1.3c0.3,2.6,0.5,5.2-0.4,7.9c1.1,0.2,2,1.1,2.2,2.2
	c0.1,0.5,0.1,1,0.1,1.6c0.1,0.2,0.2,0.5,0.3,0.7c0.7-1.7,0-3.7,2.6-4.5c-0.5-3.7-0.5-7.3,0-11l-1.8-1c-1,0.6-2.1,0.4-3.3,0.2
	c-1.4-0.2-2.8-0.2-4.2,0c-1.6,0.3-3.2,0.3-4.7-0.1c-0.3-0.1-0.6,0-0.8,0.1c-0.6,0.3-1.3,0.6-2,0.9l0.7,4.6c1.1-0.7,0.1-1.8,1.3-2.5
	c0.1,0.2,0.1,0.5,0.1,0.8c0,4.1,0.1,8.2,0,12.3c-0.2,1-0.5,2-0.9,3c-0.1,0.2-0.1,0.5,0.1,0.7c0.4,0.4,0.5,1.1,0.1,1.5
	c0,0-0.1,0.1-0.1,0.1c-0.1,0.2-0.1,0.4-0.1,0.6c0.4,1.2,0.7,2.5,0.9,3.8c0.1,3.9,0.1,7.8,0,11.7c0,0.3-0.1,0.5-0.2,0.8h-0.5
	c0-0.6,0-1.2-0.1-1.8c-0.1-0.3-0.2-0.5-0.3-0.8c-0.2,0.3-0.5,0.5-0.5,0.8c-0.2,0.9-0.2,1.8-0.4,2.6s-0.4,1.8,1.2,2.2
	c0.3,0.1,0.5,0.3,0.8,0.5v-0.2c1.1-0.1,2.3-0.1,3.4-0.1c2.2,0.5,4.4,0.4,6.6-0.1c0.5-0.1,0.9-0.1,1.4,0c1.1,0.3,2.3,0.1,3.2-0.6
	c-0.3-3.9-0.7-7.7,0.3-11.4c-1.7-0.8-2-1.2-2.2-2.5c0-0.6,0-1.1-0.1-1.7c0-0.1-0.2-0.3-0.5-0.6c-0.3,1.9,0.4,3.9-2.4,4.7
	C263.3,67.7,263.4,70.6,263.1,73.5L263.1,73.5z M157.4,49.1c0,0.2,0.1,0.4,0.1,0.6c0,2.8,0,5.5,0,8.3c0,0.7-0.2,1.5-0.4,2.2
	c-0.2,0.5-0.6,0.9,0,1.4c0.1,0.2,0.1,0.4,0,0.5c-0.5,0.4-0.2,0.8,0,1.3c0.2,0.5,0.3,0.9,0.4,1.4c0.1,3.1,0.1,6.3,0.1,9.4
	c0,0.2-0.1,0.4-0.2,0.6H157l-0.1-1.9l-0.2-0.1c-0.1,0.2-0.3,0.3-0.3,0.4c-0.1,0.7-0.2,1.3-0.3,2s-0.3,1.5,1,1.8
	c0.2,0.1,0.4,0.2,0.5,0.3v-0.2c0.8-0.1,1.6-0.1,2.4-0.1c1.6,0.4,3.4,0.3,5-0.1c0.3-0.1,0.6-0.1,0.9,0c0.9,0.3,1.9,0.1,2.6-0.5
	c-0.6-1.1-0.6-6.5,0.1-8.3c-2.2-0.5-1.5-2.1-2-3.3c-0.5,1.2,0.1,2.8-1.8,3.2c0,2.2,0.1,4.2,0,6.3c0,0.9-1,1.2-2,0.8
	c-0.7-0.2-0.7-0.7-0.7-1.1c0-3.2,0-6.3,0-9.5c0-0.3,0-0.6,0.1-0.9c0.1-0.2,0.4-0.3,0.7-0.5c0.2,0.2,0.6,0.4,0.6,0.6
	s-0.1,0.5-0.2,0.7c-0.1,0.4-0.2,0.8-0.3,1.2c0,0.5,0.4,0.8,0.8,0.8c0,0,0.1,0,0.1,0c0.2-0.5,0.3-1,0.7-1.2c1.3-1.1,1.4-1.6,0.3-2.8
	l1.1-0.7l-1-0.7c0.9-0.9,0.9-1.5,0.1-2.2c-0.5-0.4-0.9-0.9-0.6-1.6c-0.9,0.2-1.4,0.6-1.3,1.2c0,0.4,0.3,0.7,0.3,1.1
	s-0.3,0.6-0.5,0.9c-0.3-0.2-0.7-0.4-0.8-0.6c-0.1-0.3-0.2-0.7-0.2-1.1c0-2.7,0-5.5,0-8.2c0-0.4,0.1-0.9,0.2-1.2
	c0.3-0.4,0.7-0.6,1.1-0.7c0.5,0.1,0.9,0.3,1.1,0.6c0.2,0.3,0.3,0.7,0.2,1.1c0,0.9,0,1.9,0,2.8c0,0.7-0.2,1.3-0.3,2.1
	c1.9,0.5,1.4,2,1.9,3.2c0.5-1.2-0.1-2.7,1.8-3.3c-0.3-2.7-0.3-5.3,0-8l-1.4-0.8c-0.7,0.3-1.5,0.4-2.3,0.2c-1.1-0.1-2.2-0.1-3.3,0
	c-1.1,0.2-2.2,0.2-3.4-0.1c-0.2-0.1-0.4-0.1-0.6,0c-0.5,0.2-0.9,0.4-1.4,0.7c0.1,1,0.3,2,0.4,3.1c0,0.1,0.2,0.2,0.4,0.4L157,49
	L157.4,49.1z M53.9,52c0.4-1.7-0.2-3.8,2.5-4.6c-0.2-0.7-0.3-1.4-0.4-2.1c-0.1-2,0-4,0-6c0-0.2-0.1-0.5,0.1-0.6
	c0.2-0.3,0.6-0.5,0.9-0.6c0.4,0.1,0.7,0.3,0.9,0.6c0.1,0.3,0.2,0.7,0.1,1c0,3.9,0,7.9,0,11.8c0,0.8-0.2,1.6-0.4,2.4
	c-0.2,0.9-1.2,1.7-0.2,2.6c0.1,0.1,0.1,0.2,0,0.3c-0.8,0.8-0.1,1.4,0.1,2.2c0.2,0.5,0.2,1,0.2,1.5c0,4.4,0.1,8.7,0.1,13.1
	c0,0.2-0.1,0.4-0.2,0.5h-0.3l-0.3-2h-0.6l-0.9,4.3c0.9,0.4,1.6,0.7,2.3,1c0.2,0.1,0.3,0.1,0.5,0c1.8-0.6,3.7-0.6,5.5,0l2.2-1.1
	c0-2.7-0.4-4.1-1.2-4.3c0,0.4,0,0.7,0,1.1c-0.1,0.3-0.3,0.6-0.5,0.9c-0.2-0.3-0.4-0.6-0.5-0.9c0-0.1,0-0.1,0-0.2c0-3.7,0-7.4,0-11.1
	c0-1.4-0.2-2.9,0.8-4.2c-0.2-0.5-0.4-1.1-0.2-1.6c0.3-0.4,0.3-0.9,0-1.2c-0.2-0.2-0.3-0.5-0.3-0.8c-0.1-1.6-0.3-3.2-0.3-4.7
	c0-3.4,0-6.8,0.1-10.2c0.1-0.4,0.4-0.8,0.9-0.9c0.4-0.1,0.9,0.1,1,0.6c0,0.1,0,0.2,0,0.3c0,2.8,0.4,5.6-0.4,8.4
	c2.8,0.8,2.1,2.9,2.7,4.6c0.5-1.7-0.1-3.8,2.5-4.6c-1.2-3.8-0.2-7.5-0.7-11.1l-2.2-1c-1,0.6-2.3,0.6-3.3,0.1c-0.3-0.1-0.6-0.1-0.9,0
	c-1.8,0.5-3.6,0.5-5.4,0c-0.2-0.1-0.5-0.1-0.8-0.1c-1.1,0.5-2.4,0.5-3.5-0.1l-2.1,1c-0.5,3.7,0.6,7.4-0.8,11.1
	C53.9,48.2,53.1,50.4,53.9,52z M244.3,77.3l2.2-1.1c-0.2-1.3-0.3-2.5-0.5-3.8c0-0.2-0.3-0.3-0.6-0.7l-0.4,2.3h-0.6
	c-0.1-0.4-0.2-0.8-0.2-1.1c0-3.8-0.1-7.6,0-11.4c0.1-1.3,0.4-2.5,0.8-3.7c0-0.1,0.1-0.3,0-0.4c-0.5-0.3-0.7-0.9-0.4-1.4
	c0.1-0.2,0.2-0.3,0.4-0.4c-0.3-1-0.6-2.1-0.7-3.1c-0.1-2-0.1-3.9-0.1-5.9c0-2.5,0-5,0.1-7.5c0.1-0.5,0.4-0.9,0.9-1
	c0.5-0.1,0.9,0.1,1,0.6c0,0.1,0,0.3,0,0.4c0,2.8,0.4,5.5-0.5,8.3c2.9,0.8,2,2.9,2.6,4.6c0.6-1.7-0.1-3.8,2.5-4.6
	c-1.3-3.8-0.3-7.5-0.8-11.1l-2.1-1c-1,0.6-2.3,0.6-3.4,0.1c-0.2-0.1-0.5-0.1-0.8,0c-1.8,0.5-3.7,0.5-5.5,0c-0.2-0.1-0.5-0.1-0.8,0
	c-1.1,0.5-2.4,0.5-3.5-0.1l-2.1,1c-0.5,3.7,0.6,7.4-0.8,11.1c2.7,0.8,2,2.9,2.6,4.6c0.5-1.7-0.1-3.8,2.6-4.6
	c-0.2-0.5-0.3-1.1-0.4-1.6c-0.1-2.1-0.1-4.2-0.1-6.2c0-0.6-0.1-1.5,1.1-1.4s0.9,0.9,0.9,1.4c0,4,0.1,8.1,0,12.1
	c-0.1,1.1-0.3,2.1-0.6,3.1c-0.3,1.1,0.1,2.2,0,3.3c-0.1,0.7,0.6,1.4,0.6,2.1c0.1,4.4,0.1,8.8,0.1,13.2c0,0.2-0.1,0.4-0.2,0.6h-0.3
	l-0.4-2h-0.4l-0.9,4.3l2.7,1.1C240.5,76.7,242.5,76.7,244.3,77.3L244.3,77.3z M0.7,61.2c0.1,1.7,0,3.4,0,5c0,2.3,0,4.5,0.2,6.8
	c0.2,2.4,1.9,4,4.6,4.4c1.2,0.2,2.4,0.2,3.6,0.1c3-0.2,4.5-1.3,5.1-3.6c0.2-0.8,0.3-1.7,0.3-2.5c0.1-2.1,0.1-4.2,0.1-6.4
	c-2.5-0.7-1.7-2.8-2.4-4.4c-0.6,1.6,0.3,3.7-2.4,4.5c0.1,0.7,0.2,1.4,0.3,2.2c0,1.8,0,3.7,0,5.5c0,0.4,0.1,0.8-0.2,1.1
	c-0.3,0.5-0.8,0.8-1.4,0.9C8,74.6,7.4,74.3,7,73.8c-0.3-0.4-0.4-0.9-0.3-1.3c0-3.6-0.1-7.2,0-10.7c0.1-1.6,0.4-3.1,0.7-4.6
	c-0.8-0.8-0.8-1,0.1-2c-0.3-1-0.6-2-0.7-3.1c-0.1-4,0-8,0-12c0-0.2,0-0.3,0-0.5c0.2-0.7,0.4-1.4,1.6-1.4c1,0,1.7,0.5,1.7,1.4
	c0,2.6,0.4,5.1-0.5,7.7c2.6,0.7,2.1,2.6,2.7,4.2c0.7-1.5-0.1-3.5,2.5-4.1c-0.8-3.6-0.8-7.2-0.1-10.8L13,35.8c-1.1,0.1-2.3,0-3.4-0.3
	c-3.7-0.9-7,0.3-8.2,3.1C1.2,39.3,1,39.9,1,40.6c-0.1,3.6-0.1,7.1-0.2,10.7c-0.1,1.4-0.4,2.7-0.7,4.1c0.8,0.8,0.8,1-0.1,1.9
	C0.3,58.6,0.6,59.9,0.7,61.2z M181.6,68.6c-2-0.6-1.5-2.1-2-3.3c-0.4,1.2,0.2,2.7-1.8,3.3c0.5,1.8,0.6,3.7,0.4,5.5
	c0,0.6-0.5,1-1.3,1.1c-1.3,0.2-1.9-0.3-1.9-1.5c0-3,0-6.1,0-9.1c0.1-0.8,0.3-1.6,0.5-2.4c-0.4-0.2-0.5-0.6-0.3-1
	c0.1-0.1,0.2-0.2,0.3-0.3c-0.2-0.9-0.4-1.8-0.5-2.7c-0.1-2.8,0-5.6,0-8.4c0-0.2,0-0.3,0-0.5c0.1-0.2,0.3-0.3,0.4-0.4
	c0.1,0.2,0.3,0.3,0.4,0.5c0.1,0.4,0.1,0.7,0.1,1.1h0.4l0.5-3.3c-0.6-0.2-1.1-0.5-1.6-0.6c-0.2-0.1-0.4-0.1-0.6,0
	c-1.1,0.3-2.2,0.3-3.3,0c-0.2-0.1-0.4-0.1-0.6,0c-0.4,0.2-0.9,0.4-1.3,0.6c-0.1,1.2,0.1,2.9,0.6,3.2l0.2-1.6h0.3
	c0.1,0.3,0.1,0.6,0.1,0.9c0,2.6,0,5.2,0,7.8c0.1,1.1-0.2,2.3-0.9,3.2c0.7,0.6,0.8,1.1,0.2,1.5c0.3,0.8,0.6,1.6,0.7,2.4
	c0.1,3.2,0.1,6.4,0.1,9.6c0,0.2-0.1,0.4-0.2,0.6h-0.3l-0.1-1.6c-0.5,0.2-0.9,2.1-0.8,3.2l1.8,0.9v-0.2c0.8-0.1,1.6-0.1,2.4-0.1
	c1.5,0.3,2.9,0.3,4.4,0.2c0.8-0.1,1.5-0.1,2.3,0l1.5-0.7C180.9,73.9,180.9,71.2,181.6,68.6L181.6,68.6z"/>
</svg>
