<?xml version="1.0" encoding="utf-8"?>
<!-- Generator: Adobe Illustrator 23.0.3, SVG Export Plug-In . SVG Version: 6.00 Build 0)  -->
<svg version="1.1" id="logo" xmlns="http://www.w3.org/2000/svg" xmlns:xlink="http://www.w3.org/1999/xlink" x="0px" y="0px"
	 viewBox="0 0 284.3 106.6" style="enable-background:new 0 0 284.3 106.6;" xml:space="preserve">
<style type="text/css">
	.st0{display:none;fill:#263746;}
	.st1{fill:#9CCB3B;}
	.st2{fill:#263746;}
	.st3{display:none;}
</style>
<title>01 CulteraDelArteJR</title>
<path class="st0" d="M223.6,56.1c0.7,0.1,1.3,0.1,2,0l0,0c2.4-0.4,4.8-1,7.1-1.3l-0.1-0.1c-1.7,0-3.4-0.1-5.1,0
	c-3.1,0.2-6,0.5-9,0.8c-0.4,0.1-0.7,0.2-1.1,0.4c0.4,0.1,0.8,0.2,1.2,0.2H223.6z"/>
<path class="st0" d="M99.9,53.9h-5.1l0,0.1L99.9,53.9C99.9,54,99.9,54,99.9,53.9z"/>
<path class="st1" d="M95.2,54.1c-0.2,0-0.3-0.1-0.5-0.1l0,0H80.5c-1.1,0.4-2.2,0.5-3.4,0.6c2.4,0,6.9,0,11.7,0
	c-0.3,0.2-0.4,0.5-0.3,0.8v0.3c-0.3,0-0.5,0-0.8,0c0,0-0.1,0-0.1,0c-7.8-0.3-15.5-0.8-23.2-1.3c-6.8-0.5-13.6-1.1-20.7-1
	c-0.7,0-1.3,0-2.1-0.1c-1,0.4-2,0.9-3,1.4c0.1,0.5,0.1,0.9,0.2,1.4h0.2c1.4,0.1,2.8-0.1,4.1-0.6c0.3-0.1,0.6-0.1,0.9-0.2l0.4,1.2H40
	c-0.4,0-0.7,0-1,0c0.1,0.9,0.3,1.8,0.4,2.7c0.5,0.1,1,0.2,1.5,0.3c2.4,0.4,4.8,0.9,7.1,1.7c4.5,1.3,9.2,2.6,13.8,3.8
	c1.4,0.4,2.9,0.6,4.4,0.9c0.7,0.1,1,0.3,1,0.6c0,0.6,0.9,1,2.5,1c2.8,0.1,5.5,0,8.3,0.2c4.1,0.2,8.2,0.6,12.2,1
	c5.7,0.6,11.3,1.4,17.1,1.9c-31.2-3-23.7-1.6,22.6,1.9c6.4,0.5,12.9,0.9,19.4,1.3c3.7,0.2,7.4,0.3,11.1,0.5l2,0.1h5.3l0.5-0.1
	c0.8-0.2,1.2-0.5,1.2-0.8c0-0.4-0.6-0.7-1.4-0.8c-0.6-0.1-1.3-0.2-1.9-0.2c-1.6-0.2-42.3-0.3-43.9-0.5c1.2-0.1,2.3,0,3.4,0
	c3.7-0.1,7.3-0.2,11-0.3h14.8c1.6,0,3.1-0.2,3.7-0.9c0.4-0.2,0.9-0.3,1.4-0.3c2,0,4,0,6,0c1.6-0.1,3.2-0.3,4.8-0.5
	c0.7-0.1,1.4-0.2,2.2-0.2c1.9-0.1,3.9-0.2,5.8-0.2c6.7-0.2,13.5-0.4,20.2-0.6c4.5-0.1,9-0.1,13.4-0.1c0.9,0.1,1.8-0.1,2.5-0.6
	c0.3-0.4,1-0.5,1.9-0.5c1.3,0,2.6-0.1,3.8-0.2c2-0.2,2.9-0.5,2.9-1.1c0-0.5-1.2-0.9-2.5-1.1c1-0.2,1.9-0.3,2.9-0.4
	c1-0.1,2.2-0.1,3.2-0.2c2.2-0.2,4.4-0.5,6.6-0.8c1.8-0.2,2.5-0.7,2.2-1.5c-0.2-0.4,0.2-0.5,0.9-0.7c1.6-0.3,3.2-0.6,4.8-0.9
	c3.4-0.7,7-1.1,10.5-1c0.8,0,1.5,0,2.2-0.1c1-0.1,1.7-0.4,1.7-0.9c0-0.4-0.6-0.9-1.6-1c-0.6-0.1-1.2-0.1-1.8-0.1
	c-2.8,0-5.7,0.1-8.5,0.1c-5.9-0.1-11.7-0.3-17.6-0.4c-1.6,0-3.1,0-4.7-0.1c-4.6-0.3-9.2-0.6-13.8-0.8c-2.8-0.2-5.6-0.2-8.5-0.3
	c-1.2,0-2.3-0.3-3.5-0.3h-18.2c-0.5,0-1,0-1.5-0.1c1.2-1.2,0.3-1.8-2.6-1.7s-5.9,0.2-8.8,0.3c-4.4,0.2-8.7,0.4-13.1,0.5
	c-4.7,0.1-9.4,0.1-14,0.1c-10.2,0.1-20.4,0.1-30.6-0.4c2.9,0,4.6,0,4-0.1c-1-0.1-1.9-0.2-2.9-0.4l0.1-0.1h-4.5
	c-0.1,0.1-0.2,0.3-0.4,0.4 M73.3,62.7c-0.5,0-0.7-0.1-0.6-0.1c0.4-0.1,0.9-0.1,1.3-0.1C73.8,62.6,73.6,62.7,73.3,62.7z M57,56.4
	c2.2,0,4.5,0.2,6.7,0.5c0.7,0.1,1.3,0.3,2,0.4c1.2,0.2,2.2,0.4,2.2,1.1c0,0.5,1.2,0.7,2.7,0.8c1.6,0,3.2,0.3,4.7,0.8
	C69.2,59.7,63,58.5,57,56.4z M93.9,59.8l0.1-0.1C94.9,59.8,94.7,59.8,93.9,59.8z M104,62.8c0,0.1,0,0.2,0.1,0.3c-0.3,0-0.6,0-0.9,0
	c-0.1-0.2-0.2-0.4-0.5-0.7C103.9,62.3,104,62.3,104,62.8z M111,65.7l-15-1.4v-0.2c1.5,0,3,0.1,4.5,0c1.7-0.1,2.6-0.3,2.7-0.8
	c0.3,0,0.3-0.1,0.1-0.1v-0.1h0.8c0.3,0.8,1.6,1.4,3.2,1.8C108.5,65.2,109.8,65.4,111,65.7L111,65.7z M130,60.2h-17.8v-0.1L130,60.2
	L130,60.2z M161.8,58.6c3.6-0.6,10.5-0.5,11.6,0.2C171.8,58.9,163,58.8,161.8,58.6z"/>
<path class="st2" d="M99,54.6c-0.3,0-0.7,0.1-1.1,0C98.2,54.6,98.6,54.6,99,54.6z"/>
<path class="st2" d="M72.5,64.3C72.2,64.2,72.3,64.2,72.5,64.3C72.5,64.2,72.5,64.2,72.5,64.3L72.5,64.3z"/>
<g id="Layer_2">
</g>
<g id="Layer_3" class="st3">
</g>
</svg>
